<?xml version="1.0" encoding="UTF-8" standalone="no"?><!DOCTYPE svg PUBLIC "-//W3C//DTD SVG 1.1//EN" "http://www.w3.org/Graphics/SVG/1.1/DTD/svg11.dtd"><svg width="100%" height="100%" viewBox="0 0 144 96" version="1.1" xmlns="http://www.w3.org/2000/svg" xmlns:xlink="http://www.w3.org/1999/xlink" xml:space="preserve" xmlns:serif="http://www.serif.com/" style="fill-rule:evenodd;clip-rule:evenodd;stroke-linejoin:round;stroke-miterlimit:2;"><rect x="-532.37" y="-253.623" width="1683.78" height="595.276"/><rect x="-532.37" y="-253.623" width="841.89" height="595.276" style="fill:#4c4c4c;"/><g><rect x="0" y="0" width="144" height="96"/><g id="mediano2"><g><circle cx="58.067" cy="49.132" r="13.635" style="fill:none;stroke:#fff;stroke-width:0.38px;"/><circle cx="85.504" cy="49.132" r="13.635" style="fill:none;stroke:#fff;stroke-width:0.38px;"/><circle cx="71.815" cy="48.527" r="27.383" style="fill:none;stroke:#fff;stroke-width:0.38px;"/><text x="68.522px" y="52.992px" style="font-family:'Montserrat-SemiBold', 'Montserrat';font-weight:600;font-size:13.192px;fill:#fff;">1</text><path d="M68.629,41.958l3.666,-0c0.996,-0 1.8,0.804 1.8,1.8l0,9.234c0,0.994 -0.804,1.801 -1.8,1.801l-1.714,-0c-0.994,-0 -1.801,-0.807 -1.801,-1.801l-0,-5.996l-0.151,-0c-0.996,-0 -1.801,-0.807 -1.801,-1.801l0,-1.437c0,-0.996 0.805,-1.8 1.801,-1.8Zm-0,1.8l-0,1.437l1.952,0l-0,7.797l1.714,-0l-0,-9.234l-3.666,0Z"/><text x="67.682px" y="79.44px" style="font-family:'Montserrat-SemiBold', 'Montserrat';font-weight:600;font-size:13.192px;fill:#fff;">2</text><path d="M75.04,76.19c0.954,0.046 1.712,0.833 1.712,1.798l-0,1.452c-0,0.994 -0.807,1.8 -1.801,1.8l-6.808,0c-0.994,0 -1.801,-0.806 -1.801,-1.8l0,-1.147c0,-0.496 0.204,-0.967 0.562,-1.308l3.25,-3.086c-0.633,0.54 -1.579,0.583 -2.263,0.056l-1.201,-0.924c-0.778,-0.599 -0.933,-1.709 -0.349,-2.499c1.013,-1.37 2.798,-2.26 4.955,-2.26c3.209,0 5.099,1.837 5.099,4.453c0,1.089 -0.189,2.132 -1.355,3.465Zm-4.745,-2.424c-0,-0 0.301,-0.286 0.315,-0.299c-0.077,0.04 -0.144,0.094 -0.202,0.167c-0.036,0.047 -0.074,0.09 -0.113,0.132Zm0.302,4.222l2.467,-2.348c1.28,-1.201 1.531,-2.018 1.531,-2.915c-0,-1.637 -1.293,-2.652 -3.299,-2.652c-1.516,-0 -2.796,0.567 -3.508,1.53l1.2,0.924c0.515,-0.659 1.267,-0.963 2.164,-0.963c1.134,-0 1.714,0.488 1.714,1.332c0,0.515 -0.158,1.055 -1.055,1.912l-3.668,3.485l0,1.147l6.808,-0l0,-1.452l-4.354,0Z"/><text x="68.162px" y="25.794px" style="font-family:'Montserrat-SemiBold', 'Montserrat';font-weight:600;font-size:13.192px;fill:#fff;">3</text><path d="M68.922,21.725c0,-0.02 -0.002,-0.04 -0.002,-0.06l0,-1.174c0,-0.239 0.049,-0.475 0.139,-0.693l-0.436,-0c-0.994,-0 -1.8,-0.807 -1.8,-1.801l-0,-1.437c-0,-0.995 0.806,-1.8 1.8,-1.8l6.294,-0c0.993,-0 1.8,0.805 1.8,1.8l0,1.147c0,0.425 -0.149,0.836 -0.423,1.16l-0.67,0.796c0.996,0.816 1.477,2.006 1.477,3.36c-0,1.298 -0.503,2.503 -1.509,3.387c-0.868,0.765 -2.163,1.316 -3.947,1.316c-1.729,0 -3.445,-0.562 -4.581,-1.451c-0.695,-0.548 -0.891,-1.518 -0.463,-2.291l0.738,-1.332c0.261,-0.47 0.719,-0.8 1.248,-0.897c0.112,-0.021 0.224,-0.03 0.335,-0.03Zm2.644,0.896l-0.006,0.006l0,0.007l0.006,-0l-0,-0.013Zm1.109,-2.249l2.242,-2.665l-0,-1.147l-6.294,0l0,1.437l4.196,0l-2.098,2.494l0,1.174l0.845,0c1.399,0 2.005,0.54 2.005,1.372c0,0.857 -0.725,1.398 -1.951,1.398c-1.043,-0 -2.046,-0.355 -2.705,-0.91l-0.74,1.333c0.859,0.671 2.164,1.067 3.47,1.067c2.481,0 3.655,-1.345 3.655,-2.902c0,-1.385 -0.884,-2.427 -2.625,-2.651Z"/><text x="93.922px" y="52.693px" style="font-family:'Montserrat-SemiBold', 'Montserrat';font-weight:600;font-size:13.192px;fill:#fff;">4</text><path d="M101.458,45.519c0.823,0.166 1.442,0.893 1.442,1.765l0,0.067c0.917,0.084 1.635,0.855 1.635,1.793l0,1.451c0,0.94 -0.718,1.711 -1.635,1.794l0,0.304c0,0.994 -0.806,1.801 -1.8,1.801l-1.664,-0c-0.994,-0 -1.801,-0.807 -1.801,-1.801l0,-0.297l-3.264,0c-0.994,0 -1.801,-0.807 -1.801,-1.801l-0,-1.186c-0,-0.396 0.13,-0.78 0.371,-1.095l4.55,-5.949c0.342,-0.445 0.87,-0.706 1.432,-0.706l1.833,-0c0.682,-0 1.307,0.385 1.611,0.996c0.305,0.612 0.238,1.343 -0.173,1.888l-0.736,0.976Zm1.277,3.625l-1.635,0l-0,-1.86l-1.61,0l-0,1.86l-3.022,0l4.288,-5.685l-1.833,0l-4.552,5.95l-0,1.186l5.065,0l-0,2.098l1.664,0l-0,-2.098l1.635,0l-0,-1.451Z"/><text x="40.686px" y="53.191px" style="font-family:'Montserrat-SemiBold', 'Montserrat';font-weight:600;font-size:13.192px;fill:#fff;">0</text><path d="M45.119,55.123c-3.099,-0 -5.654,-2.256 -5.654,-6.549c-0,-4.293 2.555,-6.551 5.654,-6.551c3.115,0 5.665,2.26 5.665,6.551c-0,4.291 -2.55,6.549 -5.665,6.549Zm-0,-1.801c2.202,0 3.864,-1.714 3.864,-4.748c-0,-3.034 -1.662,-4.75 -3.864,-4.75c-2.19,-0 -3.854,1.716 -3.854,4.75c0,3.034 1.664,4.748 3.854,4.748Zm-0,-1.491c-1.253,0 -2.125,-1.028 -2.125,-3.257c0,-2.229 0.872,-3.259 2.125,-3.259c1.266,-0 2.137,1.03 2.137,3.259c0,2.229 -0.871,3.257 -2.137,3.257Zm-0,-1.8c0.131,-0 0.146,-0.152 0.196,-0.31c0.097,-0.312 0.14,-0.693 0.14,-1.147c0,-0.454 -0.043,-0.838 -0.14,-1.147c-0.05,-0.159 -0.065,-0.312 -0.196,-0.312c-0.128,0 -0.135,0.155 -0.184,0.31c-0.099,0.311 -0.14,0.693 -0.14,1.149c-0,0.454 0.041,0.837 0.14,1.147c0.049,0.156 0.056,0.31 0.184,0.31Z"/></g></g><g id="mediano1"></g><g id="grande"></g></g></svg>